<?xml version="1.0" standalone="no"?>
<!DOCTYPE svg PUBLIC "-//W3C//DTD SVG 20010904//EN"
 "http://www.w3.org/TR/2001/REC-SVG-20010904/DTD/svg10.dtd">
<svg version="1.0" xmlns="http://www.w3.org/2000/svg"
 width="690.000000pt" height="690.000000pt" viewBox="0 0 690.000000 690.000000"
 preserveAspectRatio="xMidYMid meet">
<metadata>
Created by potrace 1.14, written by Peter Selinger 2001-2017
</metadata>
<g transform="translate(0.000000,690.000000) scale(0.100000,-0.100000)"
fill="#000000" stroke="none">
<path d="M2 6458 l3 -442 430 -72 c237 -40 1786 -300 3443 -578 1656 -278
3014 -506 3017 -506 3 0 5 459 5 1020 l0 1020 -3450 0 -3450 0 2 -442z"/>
<path d="M0 1635 l0 -1635 3450 0 3450 0 0 1058 0 1058 -1292 217 c-711 119
-2258 379 -3437 577 -1179 198 -2150 360 -2157 360 -12 0 -14 -257 -14 -1635z
m1407 66 c-6 -35 -6 -35 8 -11 l14 25 1 -33 c0 -18 -7 -47 -15 -65 -15 -29
-15 -30 0 -12 9 11 18 30 22 43 9 36 26 26 20 -12 -4 -28 -3 -34 9 -29 17 6
19 -20 2 -50 -10 -20 -10 -21 5 -8 14 11 18 11 24 -4 9 -25 -16 -65 -56 -92
-19 -13 -29 -23 -24 -23 6 0 27 14 48 30 45 35 51 37 58 10 3 -11 2 -18 -3
-15 -4 3 -10 -2 -14 -10 -3 -8 -20 -24 -38 -35 -18 -11 -29 -20 -24 -20 5 0
24 10 43 21 58 36 58 5 -1 -33 -17 -11 -22 -17 -11 -13 11 4 30 10 42 12 13 3
20 9 17 14 -3 5 13 28 36 51 37 39 100 150 100 176 0 6 5 14 11 18 9 5 10 -6
7 -41 -4 -29 -2 -42 3 -34 16 25 10 -40 -6 -71 -14 -27 -14 -29 1 -23 13 5 15
2 9 -18 -4 -13 -17 -35 -29 -49 -20 -24 -20 -24 0 -7 20 16 34 14 34 -5 0 -5
-12 -21 -27 -35 -16 -15 -22 -23 -15 -19 16 9 16 -16 0 -32 -7 -7 -13 -20 -13
-30 0 -11 -13 -21 -35 -28 -40 -13 -64 -8 -56 12 3 8 1 24 -4 36 -5 13 -9 18
-9 11 -1 -7 -21 -13 -48 -16 l-48 -3 53 -2 c59 -2 69 -22 16 -33 -24 -5 -25
-7 -6 -8 12 0 49 -10 82 -21 63 -21 97 -19 216 16 30 9 58 14 61 11 9 -10 -18
-48 -40 -57 -18 -8 -16 -9 13 -7 42 2 48 -21 10 -40 -24 -12 -25 -13 -2 -13
24 0 30 -25 8 -33 -8 -3 -25 -4 -38 -1 l-23 5 23 -10 c48 -22 10 -52 -42 -33
-31 12 -31 12 -8 -6 18 -14 20 -20 10 -30 -20 -20 -40 -14 -83 25 -27 26 -31
28 -12 7 31 -35 35 -54 9 -54 -10 0 -23 -14 -31 -32 -8 -18 -41 -59 -72 -91
-177 -177 -465 -179 -641 -3 -294 294 -68 801 345 774 72 -4 75 -2 93 74 9 40
27 22 21 -21z m150 -157 c26 -25 35 -37 20 -25 -16 11 -35 17 -44 14 -11 -4
-14 -2 -9 5 4 6 -2 17 -14 24 -11 7 -20 16 -20 20 0 17 21 6 67 -38z m161
-299 c0 -19 -5 -8 -14 30 -16 75 -16 93 1 40 8 -22 13 -53 13 -70z m382 -38
c0 -122 -11 -147 -67 -147 -28 0 -34 3 -29 16 3 9 6 17 6 19 0 2 9 1 20 -2 28
-8 40 31 40 133 0 68 3 84 15 84 12 0 15 -18 15 -103z m150 88 c0 -11 -11 -15
-40 -15 -39 0 -40 -1 -40 -35 0 -34 1 -35 40 -35 29 0 40 -4 40 -15 0 -11 -11
-15 -40 -15 l-40 0 0 -45 0 -45 45 0 c33 0 45 -4 45 -15 0 -12 -13 -15 -60
-15 l-60 0 0 125 0 125 55 0 c42 0 55 -3 55 -15z m140 -5 c0 -18 -4 -20 -34
-15 -28 6 -36 3 -44 -12 -13 -24 -6 -36 35 -57 87 -44 64 -151 -30 -144 -35 3
-43 7 -45 26 -3 21 -2 22 18 12 27 -15 66 -6 75 17 4 13 -2 25 -22 40 -78 61
-89 86 -57 131 12 17 25 22 60 22 38 0 44 -3 44 -20z m70 -73 c0 -100 12 -132
45 -125 31 5 45 47 45 136 0 68 3 82 16 82 14 0 15 -14 12 -104 -4 -123 -16
-146 -79 -146 -58 0 -69 23 -69 147 0 85 3 103 15 103 12 0 15 -17 15 -93z
m270 73 c0 -18 -4 -20 -34 -15 -28 6 -36 3 -44 -12 -13 -24 -6 -36 35 -57 87
-44 64 -151 -30 -144 -35 3 -43 7 -45 26 -3 21 -2 22 18 12 27 -15 66 -6 75
17 4 13 -2 25 -22 40 -78 61 -89 86 -57 131 12 17 25 22 60 22 38 0 44 -3 44
-20z m208 8 c15 -15 16 -84 2 -93 -6 -4 -4 -12 5 -21 20 -20 19 -83 -2 -106
-11 -13 -30 -18 -65 -18 l-48 0 0 125 0 125 48 0 c26 0 53 -5 60 -12z m176
-95 c16 -60 31 -116 33 -125 4 -13 0 -18 -15 -18 -16 0 -22 9 -27 40 -6 37 -9
40 -40 40 -31 0 -35 -3 -41 -36 -6 -33 -27 -54 -41 -41 -3 4 9 60 27 127 29
105 36 120 54 120 19 0 25 -14 50 -107z m172 82 c12 -18 15 -37 11 -63 -7 -43
-29 -62 -69 -62 -27 0 -28 -2 -28 -50 0 -38 -4 -50 -15 -50 -13 0 -15 21 -15
125 l0 125 50 0 c42 0 52 -4 66 -25z m174 10 c0 -10 -10 -15 -30 -15 l-30 0 0
-110 c0 -91 -3 -110 -15 -110 -12 0 -15 19 -15 110 l0 110 -30 0 c-20 0 -30 5
-30 15 0 12 15 15 75 15 60 0 75 -3 75 -15z m50 -110 c0 -104 -2 -125 -15
-125 -13 0 -15 21 -15 125 0 104 2 125 15 125 13 0 15 -21 15 -125z m143 106
c-3 -14 -13 -18 -35 -17 -19 1 -34 -5 -42 -17 -12 -19 -9 -23 59 -70 19 -14
25 -27 25 -54 0 -51 -23 -73 -76 -73 -45 0 -58 9 -48 33 4 12 11 13 34 4 56
-21 85 40 31 68 -45 23 -61 44 -61 80 0 46 22 65 75 65 37 0 42 -3 38 -19z
m167 4 c0 -10 -10 -15 -30 -15 l-30 0 0 -110 c0 -91 -3 -110 -15 -110 -12 0
-15 19 -15 110 l0 110 -30 0 c-20 0 -30 5 -30 15 0 12 15 15 75 15 60 0 75 -3
75 -15z m120 -78 c0 -100 12 -132 45 -125 31 5 45 47 45 136 0 68 3 82 16 82
14 0 15 -14 12 -104 -4 -123 -16 -146 -79 -146 -58 0 -69 23 -69 147 0 85 3
103 15 103 12 0 15 -17 15 -93z m263 74 c-3 -14 -13 -18 -35 -17 -19 1 -34 -5
-42 -17 -12 -19 -9 -23 59 -70 19 -14 25 -27 25 -54 0 -51 -23 -73 -76 -73
-45 0 -58 9 -48 33 4 12 11 13 34 4 56 -21 85 40 31 68 -45 23 -61 44 -61 80
0 46 22 65 75 65 37 0 42 -3 38 -19z m167 -101 c18 -67 30 -123 27 -127 -14
-13 -35 8 -41 41 -6 33 -10 36 -41 36 -31 0 -34 -3 -40 -40 -5 -31 -11 -40
-27 -40 -15 0 -19 5 -15 18 2 9 17 65 33 125 25 93 31 107 50 107 18 0 25 -15
54 -120z m260 116 c0 -23 -15 -35 -39 -30 -20 4 -35 -1 -56 -18 -24 -21 -28
-33 -28 -71 0 -63 32 -99 83 -95 26 2 35 -1 35 -12 0 -19 -75 -26 -105 -10
-26 14 -50 67 -50 110 0 38 25 99 48 116 15 12 112 20 112 10z m173 -27 c41
-56 30 -173 -18 -205 -35 -23 -94 -15 -117 16 -39 53 -35 154 8 197 34 34 98
30 127 -8z m140 -60 l47 -92 0 92 c0 74 3 91 15 91 13 0 15 -21 15 -125 0
-116 -1 -125 -19 -125 -14 0 -32 24 -65 88 l-45 87 -1 -87 c0 -71 -3 -88 -15
-88 -13 0 -15 21 -15 125 0 112 2 125 18 125 11 0 32 -29 65 -91z m227 76 c0
-11 -11 -15 -40 -15 l-40 0 0 -40 c0 -39 1 -40 35 -40 24 0 35 -5 35 -15 0
-10 -11 -15 -35 -15 l-35 0 0 -55 c0 -42 -3 -55 -15 -55 -13 0 -15 21 -15 125
l0 125 55 0 c42 0 55 -3 55 -15z m150 0 c0 -11 -12 -15 -45 -15 -45 0 -45 0
-45 -35 0 -34 1 -35 40 -35 29 0 40 -4 40 -15 0 -11 -11 -15 -40 -15 l-40 0 0
-45 0 -45 45 0 c33 0 45 -4 45 -15 0 -12 -13 -15 -60 -15 l-60 0 0 125 0 125
60 0 c47 0 60 -3 60 -15z m134 -1 c18 -17 22 -84 6 -100 -7 -7 -7 -21 -1 -40
5 -16 12 -44 15 -61 5 -28 2 -33 -13 -33 -15 0 -20 10 -25 45 -6 40 -26 65
-50 65 -3 0 -6 -25 -6 -55 0 -42 -3 -55 -15 -55 -13 0 -15 21 -15 125 l0 125
44 0 c27 0 51 -6 60 -16z m166 1 c0 -11 -11 -15 -40 -15 -39 0 -40 -1 -40 -35
0 -34 1 -35 40 -35 29 0 40 -4 40 -15 0 -11 -11 -15 -40 -15 l-40 0 0 -45 0
-45 45 0 c33 0 45 -4 45 -15 0 -12 -13 -15 -60 -15 l-60 0 0 125 0 125 55 0
c42 0 55 -3 55 -15z m113 -76 l47 -92 0 92 c0 74 3 91 15 91 13 0 15 -21 15
-125 0 -116 -1 -125 -19 -125 -14 0 -32 24 -65 88 l-45 87 -1 -87 c0 -71 -3
-88 -15 -88 -13 0 -15 21 -15 125 0 112 2 125 18 125 11 0 32 -29 65 -91z
m257 87 c0 -23 -15 -35 -39 -30 -20 4 -35 -1 -56 -18 -24 -21 -28 -33 -28 -71
0 -63 32 -99 83 -95 26 2 35 -1 35 -12 0 -19 -75 -26 -105 -10 -26 14 -50 67
-50 110 0 38 25 99 48 116 15 12 112 20 112 10z m140 -11 c0 -11 -11 -15 -40
-15 -39 0 -40 -1 -40 -35 0 -34 1 -35 40 -35 29 0 40 -4 40 -15 0 -11 -11 -15
-40 -15 l-40 0 0 -45 0 -45 45 0 c33 0 45 -4 45 -15 0 -12 -13 -15 -60 -15
l-60 0 0 125 0 125 55 0 c42 0 55 -3 55 -15z"/>
<path d="M1108 1610 c-57 -21 -110 -58 -103 -71 4 -5 0 -6 -8 -3 -18 7 -89
-71 -120 -133 -28 -56 -43 -102 -51 -160 l-6 -43 220 0 c164 0 220 3 220 12 0
9 3 9 12 0 7 -7 10 -37 9 -75 l-2 -64 47 -7 c88 -12 104 -9 104 19 0 14 4 25
10 25 5 0 7 -13 4 -29 -5 -24 -2 -29 18 -33 19 -3 30 4 55 38 l32 41 -44 -5
c-88 -9 -131 5 -193 64 -31 30 -63 54 -69 54 -14 0 -17 38 -5 56 4 6 14 14 22
17 8 3 1 6 -17 6 -41 1 -54 21 -14 21 l31 0 0 60 c0 50 -3 60 -17 61 -14 0
-15 2 -3 6 8 3 18 11 22 17 14 21 21 -5 19 -70 -1 -46 2 -70 11 -76 10 -6 10
-10 -2 -18 -13 -8 -12 -10 3 -10 16 0 17 8 11 103 -6 98 -5 105 20 156 15 29
25 56 22 59 -3 3 -6 0 -6 -6 0 -6 -6 -10 -12 -8 -7 1 -10 1 -5 -1 4 -3 7 -9 7
-14 0 -14 -27 -11 -33 4 -3 8 -16 13 -29 11 -12 -1 -27 -3 -31 -3 -5 -1 -5 -5
-2 -11 3 -5 -1 -10 -9 -10 -8 0 -18 5 -21 11 -4 6 -14 8 -24 5 -13 -5 -13 -4
2 8 16 13 16 14 -6 14 -13 0 -44 -8 -69 -18z m-58 -114 c0 -2 -8 -10 -17 -17
-16 -13 -17 -12 -4 4 13 16 21 21 21 13z m104 -10 c-3 -9 -12 -12 -22 -9 -15
6 -9 11 25 22 1 1 0 -5 -3 -13z m-170 -115 c3 -5 -1 -11 -9 -14 -9 -4 -12 -1
-8 9 6 16 10 17 17 5z m123 -43 c-3 -8 -6 -5 -6 6 -1 11 2 17 5 13 3 -3 4 -12
1 -19z"/>
<path d="M1350 1570 c-6 -11 -8 -20 -6 -20 3 0 10 9 16 20 6 11 8 20 6 20 -3
0 -10 -9 -16 -20z"/>
<path d="M1430 1570 c-6 -11 -8 -20 -6 -20 3 0 10 9 16 20 6 11 8 20 6 20 -3
0 -10 -9 -16 -20z"/>
<path d="M1399 1523 c-13 -16 -12 -17 4 -4 9 7 17 15 17 17 0 8 -8 3 -21 -13z"/>
<path d="M1661 1513 c-10 -26 -10 -27 4 -9 8 11 15 23 15 28 0 15 -7 8 -19
-19z"/>
<path d="M1424 1498 l-29 -33 33 29 c17 17 32 31 32 33 0 8 -8 1 -36 -29z"/>
<path d="M1649 1433 c-13 -16 -12 -17 4 -4 9 7 17 15 17 17 0 8 -8 3 -21 -13z"/>
<path d="M1522 1341 c-11 -6 -9 -9 6 -13 15 -4 19 -2 15 8 -6 16 -4 16 -21 5z"/>
<path d="M1448 1323 c12 -2 30 -2 40 0 9 3 -1 5 -23 4 -22 0 -30 -2 -17 -4z"/>
<path d="M1255 1280 c-3 -5 -1 -10 4 -10 6 0 11 5 11 10 0 6 -2 10 -4 10 -3 0
-8 -4 -11 -10z"/>
<path d="M1608 1273 c7 -3 16 -2 19 1 4 3 -2 6 -13 5 -11 0 -14 -3 -6 -6z"/>
<path d="M820 1186 c0 -32 41 -167 55 -184 2 -2 22 2 44 9 39 12 42 14 37 43
l-5 31 11 -28 c7 -16 18 -25 25 -23 7 3 35 8 62 12 l49 6 -3 62 c-3 54 -3 57
5 21 19 -86 17 -90 -51 -103 -34 -6 -64 -13 -66 -16 -6 -6 46 -103 62 -116 7
-6 27 -4 55 4 l44 13 51 -76 51 -76 64 1 c68 1 155 29 199 63 l24 19 -22 12
c-20 10 -27 8 -50 -13 -47 -44 -112 -80 -124 -68 -7 7 -15 7 -22 1 -8 -7 -12
-5 -12 5 0 8 6 16 13 19 13 5 69 95 63 100 -2 2 -25 6 -51 9 l-48 7 0 -55 c0
-30 -4 -55 -10 -55 -5 0 -10 24 -10 54 0 44 -4 55 -17 59 -17 4 -17 5 0 6 14
1 17 11 17 61 l0 60 -67 1 -68 2 68 10 67 9 0 59 0 59 -220 0 c-121 0 -220 -2
-220 -4z m309 -221 l0 -20 -9 20 c-5 11 -9 27 -9 35 -1 13 0 13 9 0 5 -8 9
-24 9 -35z"/>
<path d="M1743 1173 c9 -2 25 -2 35 0 9 3 1 5 -18 5 -19 0 -27 -2 -17 -5z"/>
<path d="M1738 1143 c12 -2 30 -2 40 0 9 3 -1 5 -23 4 -22 0 -30 -2 -17 -4z"/>
<path d="M1768 1103 c7 -3 16 -2 19 1 4 3 -2 6 -13 5 -11 0 -14 -3 -6 -6z"/>
<path d="M1582 1075 c0 -16 2 -22 5 -12 2 9 2 23 0 30 -3 6 -5 -1 -5 -18z"/>
<path d="M1610 1097 c0 -4 9 -25 20 -46 10 -21 16 -41 13 -45 -13 -13 -34 -5
-43 17 -6 15 -9 17 -9 6 -1 -9 -8 -19 -16 -23 -8 -3 -15 -11 -15 -18 0 -7 -14
-33 -30 -58 -28 -41 -29 -46 -13 -57 9 -7 23 -13 30 -13 17 0 104 112 99 127
-3 6 0 13 6 15 6 2 0 24 -15 53 -14 28 -26 46 -27 42z"/>
<path d="M1700 1096 c0 -3 9 -10 20 -16 11 -6 20 -8 20 -6 0 3 -9 10 -20 16
-11 6 -20 8 -20 6z"/>
<path d="M1535 1060 c-6 -19 -24 -24 -71 -21 -19 2 -25 -8 -41 -61 l-19 -63
30 -12 c17 -6 36 -12 43 -12 18 -1 85 112 71 120 -6 4 -8 19 -5 38 7 35 2 42
-8 11z"/>
<path d="M1280 991 l0 -58 52 -6 c58 -7 62 -4 79 57 16 59 9 66 -66 66 l-65 0
0 -59z"/>
<path d="M918 998 c-16 -5 -28 -16 -28 -23 0 -8 22 -37 49 -67 45 -49 50 -52
74 -41 l26 12 -34 57 c-19 32 -35 61 -35 66 0 10 -18 9 -52 -4z"/>
<path d="M1097 888 c-15 -5 -25 -14 -21 -19 14 -23 116 -89 127 -83 9 5 9 4 1
-5 -14 -15 -36 -4 -106 52 -41 32 -51 36 -68 27 -16 -9 -19 -15 -11 -24 18
-21 129 -67 166 -69 19 -1 35 -6 35 -10 0 -5 5 -5 10 -2 7 4 -3 22 -23 44 -19
21 -40 52 -48 69 -15 34 -19 36 -62 20z"/>
<path d="M1363 845 c-17 -30 -27 -57 -22 -60 8 -6 111 65 123 84 5 8 -44 32
-63 31 -3 -1 -20 -25 -38 -55z"/>
<path d="M2860 1244 c0 -31 3 -35 21 -32 48 7 51 68 4 68 -22 0 -25 -4 -25
-36z"/>
<path d="M2860 1136 c0 -41 2 -46 23 -46 61 0 64 70 4 85 -26 7 -27 6 -27 -39z"/>
<path d="M3052 1216 c-13 -45 -11 -49 15 -44 17 3 18 7 7 43 l-11 40 -11 -39z"/>
<path d="M3200 1235 c0 -36 3 -45 18 -45 22 0 37 11 45 33 10 27 -10 57 -38
57 -23 0 -25 -4 -25 -45z"/>
<path d="M4303 1216 c-10 -45 -10 -46 13 -46 13 0 24 1 24 3 0 1 -6 22 -13 45
l-13 44 -11 -46z"/>
<path d="M4694 1254 c-38 -57 -11 -164 41 -164 33 0 58 41 58 95 0 54 -25 95
-58 95 -15 0 -31 -10 -41 -26z"/>
<path d="M5380 1240 c0 -37 2 -41 21 -38 30 4 47 33 33 56 -6 9 -21 18 -33 20
-19 3 -21 -1 -21 -38z"/>
</g>
</svg>
